<svg xmlns="http://www.w3.org/2000/svg" viewBox="0 0 680 360" role="img" aria-label="Social Tasker product preview">
  <rect width="680" height="360" fill="#dbe8f2"/>
  <rect x="44" y="42" width="592" height="276" rx="18" fill="#ffffff" stroke="#c8d4dc"/>
  <rect x="76" y="76" width="180" height="28" rx="8" fill="#2f6f5e"/>
  <rect x="76" y="126" width="240" height="44" rx="10" fill="#f2dee3"/>
  <rect x="76" y="186" width="240" height="44" rx="10" fill="#dcebe3"/>
  <rect x="76" y="246" width="240" height="44" rx="10" fill="#f5ead7"/>
  <rect x="360" y="76" width="244" height="62" rx="12" fill="#f7f5ef" stroke="#ddd8cd"/>
  <rect x="384" y="96" width="104" height="10" rx="5" fill="#335c81"/>
  <rect x="384" y="116" width="176" height="8" rx="4" fill="#97a6ad"/>
  <rect x="360" y="158" width="244" height="62" rx="12" fill="#f7f5ef" stroke="#ddd8cd"/>
  <rect x="384" y="178" width="88" height="10" rx="5" fill="#b83f55"/>
  <rect x="384" y="198" width="158" height="8" rx="4" fill="#97a6ad"/>
  <rect x="360" y="240" width="244" height="34" rx="10" fill="#2f6f5e"/>
</svg>
